G04 EAGLE Gerber RS-274X export*
G75*
%MOMM*%
%FSLAX34Y34*%
%LPD*%
%INBottom Copper*%
%IPPOS*%
%AMOC8*
5,1,8,0,0,1.08239X$1,22.5*%
G01*
%ADD10C,1.524000*%
%ADD11P,2.749271X8X22.500000*%
%ADD12C,0.756400*%
%ADD13C,1.016000*%

G36*
X199672Y5084D02*
X199672Y5084D01*
X199698Y5082D01*
X199845Y5104D01*
X199992Y5121D01*
X200017Y5129D01*
X200043Y5133D01*
X200181Y5188D01*
X200320Y5238D01*
X200342Y5252D01*
X200367Y5262D01*
X200488Y5347D01*
X200613Y5427D01*
X200631Y5446D01*
X200653Y5461D01*
X200752Y5571D01*
X200855Y5678D01*
X200869Y5700D01*
X200886Y5720D01*
X200958Y5850D01*
X201034Y5977D01*
X201042Y6002D01*
X201055Y6025D01*
X201095Y6168D01*
X201140Y6309D01*
X201142Y6335D01*
X201150Y6360D01*
X201169Y6604D01*
X201169Y15250D01*
X201152Y15399D01*
X201140Y15550D01*
X201132Y15573D01*
X201129Y15597D01*
X201079Y15738D01*
X201033Y15881D01*
X201020Y15902D01*
X201012Y15925D01*
X200930Y16051D01*
X200853Y16180D01*
X200836Y16197D01*
X200823Y16218D01*
X200715Y16322D01*
X200610Y16430D01*
X200590Y16443D01*
X200572Y16460D01*
X200443Y16537D01*
X200317Y16618D01*
X200294Y16626D01*
X200273Y16639D01*
X200130Y16684D01*
X199988Y16735D01*
X199964Y16737D01*
X199941Y16745D01*
X199792Y16757D01*
X199642Y16774D01*
X199618Y16771D01*
X199594Y16773D01*
X199445Y16750D01*
X199296Y16733D01*
X199268Y16724D01*
X199249Y16721D01*
X199205Y16704D01*
X199063Y16658D01*
X196865Y15747D01*
X177785Y15747D01*
X174237Y17217D01*
X171522Y19932D01*
X170052Y23480D01*
X170052Y27320D01*
X171522Y30868D01*
X174237Y33583D01*
X177785Y35053D01*
X196865Y35053D01*
X199063Y34142D01*
X199208Y34101D01*
X199351Y34055D01*
X199375Y34053D01*
X199398Y34047D01*
X199549Y34039D01*
X199698Y34027D01*
X199722Y34031D01*
X199746Y34030D01*
X199894Y34057D01*
X200043Y34079D01*
X200065Y34088D01*
X200089Y34092D01*
X200227Y34152D01*
X200367Y34208D01*
X200387Y34221D01*
X200409Y34231D01*
X200530Y34321D01*
X200653Y34407D01*
X200669Y34424D01*
X200689Y34439D01*
X200786Y34554D01*
X200886Y34665D01*
X200898Y34687D01*
X200914Y34705D01*
X200982Y34839D01*
X201055Y34970D01*
X201061Y34994D01*
X201072Y35015D01*
X201109Y35161D01*
X201150Y35306D01*
X201152Y35335D01*
X201157Y35353D01*
X201157Y35400D01*
X201169Y35550D01*
X201169Y40082D01*
X201165Y40118D01*
X201168Y40154D01*
X201145Y40290D01*
X201129Y40428D01*
X201117Y40462D01*
X201111Y40498D01*
X201059Y40626D01*
X201012Y40756D01*
X200992Y40787D01*
X200979Y40820D01*
X200898Y40932D01*
X200823Y41049D01*
X200797Y41074D01*
X200776Y41103D01*
X200672Y41195D01*
X200572Y41291D01*
X200541Y41310D01*
X200514Y41334D01*
X200392Y41399D01*
X200273Y41470D01*
X200239Y41481D01*
X200207Y41498D01*
X200073Y41534D01*
X199941Y41576D01*
X199905Y41579D01*
X199871Y41589D01*
X199732Y41593D01*
X199594Y41604D01*
X199558Y41599D01*
X199522Y41600D01*
X199386Y41573D01*
X199249Y41553D01*
X199216Y41539D01*
X199180Y41532D01*
X198954Y41439D01*
X198845Y41384D01*
X197324Y40889D01*
X195745Y40639D01*
X189864Y40639D01*
X189864Y49784D01*
X189861Y49810D01*
X189863Y49836D01*
X189841Y49983D01*
X189824Y50130D01*
X189816Y50155D01*
X189812Y50181D01*
X189757Y50318D01*
X189707Y50458D01*
X189693Y50480D01*
X189683Y50505D01*
X189598Y50626D01*
X189518Y50751D01*
X189499Y50769D01*
X189484Y50791D01*
X189468Y50805D01*
X189550Y50890D01*
X189564Y50913D01*
X189581Y50932D01*
X189653Y51062D01*
X189729Y51189D01*
X189737Y51214D01*
X189750Y51237D01*
X189790Y51380D01*
X189835Y51521D01*
X189837Y51547D01*
X189845Y51572D01*
X189864Y51816D01*
X189864Y60961D01*
X195745Y60961D01*
X197324Y60711D01*
X198845Y60216D01*
X198954Y60161D01*
X198988Y60148D01*
X199019Y60130D01*
X199151Y60087D01*
X199281Y60039D01*
X199317Y60035D01*
X199351Y60024D01*
X199489Y60012D01*
X199627Y59995D01*
X199662Y59998D01*
X199698Y59996D01*
X199835Y60016D01*
X199973Y60030D01*
X200007Y60042D01*
X200043Y60047D01*
X200172Y60099D01*
X200303Y60144D01*
X200333Y60163D01*
X200367Y60176D01*
X200480Y60255D01*
X200598Y60329D01*
X200623Y60354D01*
X200653Y60375D01*
X200746Y60478D01*
X200843Y60576D01*
X200862Y60607D01*
X200886Y60634D01*
X200954Y60755D01*
X201026Y60873D01*
X201037Y60907D01*
X201055Y60939D01*
X201093Y61072D01*
X201137Y61204D01*
X201140Y61240D01*
X201150Y61274D01*
X201169Y61518D01*
X201169Y66050D01*
X201168Y66060D01*
X201168Y66063D01*
X201166Y66078D01*
X201152Y66199D01*
X201140Y66350D01*
X201132Y66373D01*
X201129Y66397D01*
X201079Y66538D01*
X201033Y66681D01*
X201020Y66702D01*
X201012Y66725D01*
X200930Y66851D01*
X200853Y66980D01*
X200836Y66997D01*
X200823Y67018D01*
X200715Y67122D01*
X200610Y67230D01*
X200590Y67243D01*
X200572Y67260D01*
X200443Y67337D01*
X200317Y67418D01*
X200294Y67426D01*
X200273Y67439D01*
X200130Y67484D01*
X199988Y67535D01*
X199964Y67537D01*
X199941Y67545D01*
X199792Y67557D01*
X199642Y67574D01*
X199618Y67571D01*
X199594Y67573D01*
X199445Y67550D01*
X199296Y67533D01*
X199268Y67524D01*
X199249Y67521D01*
X199205Y67504D01*
X199063Y67458D01*
X196865Y66547D01*
X177785Y66547D01*
X174237Y68017D01*
X171522Y70732D01*
X170052Y74280D01*
X170052Y78120D01*
X171522Y81668D01*
X174237Y84383D01*
X177785Y85853D01*
X196865Y85853D01*
X199063Y84942D01*
X199208Y84901D01*
X199351Y84855D01*
X199375Y84853D01*
X199398Y84847D01*
X199549Y84839D01*
X199698Y84827D01*
X199722Y84831D01*
X199746Y84830D01*
X199894Y84857D01*
X200043Y84879D01*
X200065Y84888D01*
X200089Y84892D01*
X200227Y84952D01*
X200367Y85008D01*
X200387Y85021D01*
X200409Y85031D01*
X200530Y85121D01*
X200653Y85207D01*
X200669Y85224D01*
X200689Y85239D01*
X200786Y85354D01*
X200886Y85465D01*
X200898Y85487D01*
X200914Y85505D01*
X200982Y85639D01*
X201055Y85770D01*
X201061Y85794D01*
X201072Y85815D01*
X201109Y85961D01*
X201150Y86106D01*
X201152Y86135D01*
X201157Y86153D01*
X201157Y86200D01*
X201169Y86350D01*
X201169Y91450D01*
X201152Y91599D01*
X201140Y91750D01*
X201132Y91773D01*
X201129Y91797D01*
X201079Y91938D01*
X201033Y92081D01*
X201020Y92102D01*
X201012Y92125D01*
X200930Y92251D01*
X200853Y92380D01*
X200836Y92397D01*
X200823Y92418D01*
X200715Y92522D01*
X200610Y92630D01*
X200590Y92643D01*
X200572Y92660D01*
X200443Y92737D01*
X200317Y92818D01*
X200294Y92826D01*
X200273Y92839D01*
X200130Y92884D01*
X199988Y92935D01*
X199964Y92937D01*
X199941Y92945D01*
X199792Y92957D01*
X199642Y92974D01*
X199618Y92971D01*
X199594Y92973D01*
X199445Y92950D01*
X199296Y92933D01*
X199268Y92924D01*
X199249Y92921D01*
X199205Y92904D01*
X199063Y92858D01*
X196865Y91947D01*
X177785Y91947D01*
X174237Y93417D01*
X171522Y96132D01*
X170052Y99680D01*
X170052Y103520D01*
X171522Y107068D01*
X174237Y109783D01*
X177785Y111253D01*
X196865Y111253D01*
X199063Y110342D01*
X199208Y110301D01*
X199351Y110255D01*
X199375Y110253D01*
X199398Y110247D01*
X199549Y110239D01*
X199698Y110227D01*
X199722Y110231D01*
X199746Y110230D01*
X199894Y110257D01*
X200043Y110279D01*
X200065Y110288D01*
X200089Y110292D01*
X200227Y110352D01*
X200367Y110408D01*
X200387Y110421D01*
X200409Y110431D01*
X200530Y110521D01*
X200653Y110607D01*
X200669Y110624D01*
X200689Y110639D01*
X200786Y110754D01*
X200886Y110865D01*
X200898Y110887D01*
X200914Y110905D01*
X200982Y111039D01*
X201055Y111170D01*
X201061Y111194D01*
X201072Y111215D01*
X201109Y111361D01*
X201150Y111506D01*
X201152Y111535D01*
X201157Y111553D01*
X201157Y111600D01*
X201169Y111750D01*
X201169Y116282D01*
X201166Y116306D01*
X201168Y116330D01*
X201167Y116341D01*
X201168Y116354D01*
X201145Y116490D01*
X201129Y116628D01*
X201120Y116656D01*
X201117Y116675D01*
X201114Y116681D01*
X201111Y116698D01*
X201059Y116826D01*
X201012Y116956D01*
X200993Y116985D01*
X200988Y116999D01*
X200986Y117001D01*
X200979Y117020D01*
X200898Y117132D01*
X200823Y117249D01*
X200797Y117274D01*
X200776Y117303D01*
X200672Y117395D01*
X200572Y117491D01*
X200541Y117510D01*
X200514Y117534D01*
X200392Y117599D01*
X200273Y117670D01*
X200239Y117681D01*
X200207Y117698D01*
X200073Y117734D01*
X199941Y117776D01*
X199905Y117779D01*
X199871Y117789D01*
X199754Y117793D01*
X199646Y117801D01*
X199638Y117801D01*
X199636Y117801D01*
X199594Y117804D01*
X199558Y117799D01*
X199522Y117800D01*
X199386Y117773D01*
X199357Y117769D01*
X199292Y117761D01*
X199281Y117757D01*
X199249Y117753D01*
X199216Y117739D01*
X199180Y117732D01*
X198979Y117649D01*
X198964Y117644D01*
X198960Y117642D01*
X198954Y117639D01*
X198845Y117584D01*
X197324Y117089D01*
X195745Y116839D01*
X189864Y116839D01*
X189864Y125984D01*
X189861Y126010D01*
X189863Y126036D01*
X189841Y126183D01*
X189824Y126330D01*
X189816Y126355D01*
X189812Y126381D01*
X189757Y126518D01*
X189707Y126658D01*
X189693Y126680D01*
X189683Y126705D01*
X189598Y126826D01*
X189518Y126951D01*
X189499Y126969D01*
X189484Y126991D01*
X189468Y127005D01*
X189550Y127090D01*
X189564Y127113D01*
X189581Y127132D01*
X189653Y127262D01*
X189729Y127389D01*
X189737Y127414D01*
X189750Y127437D01*
X189790Y127580D01*
X189835Y127721D01*
X189837Y127747D01*
X189845Y127772D01*
X189864Y128016D01*
X189864Y137161D01*
X195745Y137161D01*
X197324Y136911D01*
X198845Y136416D01*
X198954Y136361D01*
X198988Y136348D01*
X199019Y136330D01*
X199151Y136287D01*
X199281Y136239D01*
X199317Y136235D01*
X199351Y136224D01*
X199489Y136212D01*
X199627Y136195D01*
X199662Y136198D01*
X199698Y136196D01*
X199835Y136216D01*
X199973Y136230D01*
X200007Y136242D01*
X200043Y136247D01*
X200172Y136299D01*
X200303Y136344D01*
X200333Y136363D01*
X200367Y136376D01*
X200480Y136455D01*
X200598Y136529D01*
X200623Y136554D01*
X200653Y136575D01*
X200746Y136678D01*
X200843Y136776D01*
X200862Y136807D01*
X200886Y136834D01*
X200954Y136955D01*
X201026Y137073D01*
X201037Y137107D01*
X201055Y137139D01*
X201093Y137272D01*
X201137Y137404D01*
X201140Y137440D01*
X201150Y137474D01*
X201169Y137718D01*
X201169Y145696D01*
X201166Y145722D01*
X201168Y145748D01*
X201146Y145895D01*
X201129Y146042D01*
X201121Y146067D01*
X201117Y146093D01*
X201062Y146231D01*
X201012Y146370D01*
X200998Y146392D01*
X200988Y146417D01*
X200903Y146538D01*
X200823Y146663D01*
X200804Y146681D01*
X200789Y146703D01*
X200679Y146802D01*
X200572Y146905D01*
X200550Y146919D01*
X200530Y146936D01*
X200400Y147008D01*
X200273Y147084D01*
X200248Y147092D01*
X200225Y147105D01*
X200082Y147145D01*
X199941Y147190D01*
X199915Y147192D01*
X199890Y147200D01*
X199646Y147219D01*
X60325Y147219D01*
X60299Y147216D01*
X60273Y147218D01*
X60126Y147196D01*
X59979Y147179D01*
X59954Y147171D01*
X59928Y147167D01*
X59790Y147112D01*
X59651Y147062D01*
X59629Y147048D01*
X59604Y147038D01*
X59483Y146953D01*
X59358Y146873D01*
X59340Y146854D01*
X59318Y146839D01*
X59219Y146729D01*
X59116Y146622D01*
X59102Y146600D01*
X59085Y146580D01*
X59013Y146450D01*
X58937Y146323D01*
X58929Y146298D01*
X58916Y146275D01*
X58876Y146132D01*
X58831Y145991D01*
X58829Y145965D01*
X58821Y145940D01*
X58802Y145696D01*
X58802Y6604D01*
X58805Y6578D01*
X58803Y6552D01*
X58825Y6405D01*
X58842Y6258D01*
X58850Y6233D01*
X58854Y6207D01*
X58909Y6069D01*
X58959Y5930D01*
X58973Y5908D01*
X58983Y5883D01*
X59068Y5762D01*
X59148Y5637D01*
X59167Y5619D01*
X59182Y5597D01*
X59292Y5498D01*
X59399Y5395D01*
X59421Y5381D01*
X59441Y5364D01*
X59571Y5292D01*
X59698Y5216D01*
X59723Y5208D01*
X59746Y5195D01*
X59889Y5155D01*
X60030Y5110D01*
X60056Y5108D01*
X60081Y5100D01*
X60325Y5081D01*
X199646Y5081D01*
X199672Y5084D01*
G37*
%LPC*%
G36*
X169846Y129539D02*
X169846Y129539D01*
X170289Y130900D01*
X171015Y132325D01*
X171955Y133619D01*
X173086Y134750D01*
X174380Y135690D01*
X175805Y136416D01*
X177326Y136911D01*
X178905Y137161D01*
X184786Y137161D01*
X184786Y129539D01*
X169846Y129539D01*
G37*
%LPD*%
%LPC*%
G36*
X169846Y53339D02*
X169846Y53339D01*
X170289Y54700D01*
X171015Y56125D01*
X171955Y57419D01*
X173086Y58550D01*
X174380Y59490D01*
X175805Y60216D01*
X177326Y60711D01*
X178905Y60961D01*
X184786Y60961D01*
X184786Y53339D01*
X169846Y53339D01*
G37*
%LPD*%
%LPC*%
G36*
X178905Y116839D02*
X178905Y116839D01*
X177326Y117089D01*
X175805Y117584D01*
X174380Y118310D01*
X173086Y119250D01*
X171955Y120381D01*
X171015Y121675D01*
X170289Y123100D01*
X169846Y124461D01*
X184786Y124461D01*
X184786Y116839D01*
X178905Y116839D01*
G37*
%LPD*%
%LPC*%
G36*
X178905Y40639D02*
X178905Y40639D01*
X177326Y40889D01*
X175805Y41384D01*
X174380Y42110D01*
X173086Y43050D01*
X171955Y44181D01*
X171015Y45475D01*
X170289Y46900D01*
X169846Y48261D01*
X184786Y48261D01*
X184786Y40639D01*
X178905Y40639D01*
G37*
%LPD*%
D10*
X179705Y127000D02*
X194945Y127000D01*
X194945Y101600D02*
X179705Y101600D01*
X179705Y76200D02*
X194945Y76200D01*
X194945Y50800D02*
X179705Y50800D01*
X179705Y25400D02*
X194945Y25400D01*
D11*
X33020Y97790D03*
D12*
X101600Y45720D03*
D13*
X166370Y120650D03*
M02*
