G04 EAGLE Gerber RS-274X export*
G75*
%MOMM*%
%FSLAX34Y34*%
%LPD*%
%IN*%
%IPPOS*%
%AMOC8*
5,1,8,0,0,1.08239X$1,22.5*%
G01*
%ADD10C,0.254000*%


D10*
X0Y0D02*
X206250Y0D01*
X206250Y152300D01*
X0Y152300D01*
X0Y0D01*
X52578Y18606D02*
X52508Y17720D01*
X52369Y16843D01*
X52162Y15980D01*
X51888Y15135D01*
X51548Y14314D01*
X51144Y13523D01*
X50680Y12766D01*
X50158Y12047D01*
X49581Y11372D01*
X48953Y10744D01*
X48278Y10167D01*
X47559Y9645D01*
X46802Y9181D01*
X46011Y8777D01*
X45190Y8437D01*
X44345Y8163D01*
X43482Y7956D01*
X42605Y7817D01*
X41719Y7747D01*
X40831Y7747D01*
X39945Y7817D01*
X39068Y7956D01*
X38205Y8163D01*
X37360Y8437D01*
X36539Y8777D01*
X35748Y9181D01*
X34991Y9645D01*
X34272Y10167D01*
X33597Y10744D01*
X32969Y11372D01*
X32392Y12047D01*
X31870Y12766D01*
X31406Y13523D01*
X31002Y14314D01*
X30662Y15135D01*
X30388Y15980D01*
X30181Y16843D01*
X30042Y17720D01*
X29972Y18606D01*
X29972Y19494D01*
X30042Y20380D01*
X30181Y21257D01*
X30388Y22120D01*
X30662Y22965D01*
X31002Y23786D01*
X31406Y24577D01*
X31870Y25334D01*
X32392Y26053D01*
X32969Y26728D01*
X33597Y27356D01*
X34272Y27933D01*
X34991Y28455D01*
X35748Y28919D01*
X36539Y29323D01*
X37360Y29663D01*
X38205Y29937D01*
X39068Y30144D01*
X39945Y30283D01*
X40831Y30353D01*
X41719Y30353D01*
X42605Y30283D01*
X43482Y30144D01*
X44345Y29937D01*
X45190Y29663D01*
X46011Y29323D01*
X46802Y28919D01*
X47559Y28455D01*
X48278Y27933D01*
X48953Y27356D01*
X49581Y26728D01*
X50158Y26053D01*
X50680Y25334D01*
X51144Y24577D01*
X51548Y23786D01*
X51888Y22965D01*
X52162Y22120D01*
X52369Y21257D01*
X52508Y20380D01*
X52578Y19494D01*
X52578Y18606D01*
X52578Y137986D02*
X52508Y137100D01*
X52369Y136223D01*
X52162Y135360D01*
X51888Y134515D01*
X51548Y133694D01*
X51144Y132903D01*
X50680Y132146D01*
X50158Y131427D01*
X49581Y130752D01*
X48953Y130124D01*
X48278Y129547D01*
X47559Y129025D01*
X46802Y128561D01*
X46011Y128157D01*
X45190Y127817D01*
X44345Y127543D01*
X43482Y127336D01*
X42605Y127197D01*
X41719Y127127D01*
X40831Y127127D01*
X39945Y127197D01*
X39068Y127336D01*
X38205Y127543D01*
X37360Y127817D01*
X36539Y128157D01*
X35748Y128561D01*
X34991Y129025D01*
X34272Y129547D01*
X33597Y130124D01*
X32969Y130752D01*
X32392Y131427D01*
X31870Y132146D01*
X31406Y132903D01*
X31002Y133694D01*
X30662Y134515D01*
X30388Y135360D01*
X30181Y136223D01*
X30042Y137100D01*
X29972Y137986D01*
X29972Y138874D01*
X30042Y139760D01*
X30181Y140637D01*
X30388Y141500D01*
X30662Y142345D01*
X31002Y143166D01*
X31406Y143957D01*
X31870Y144714D01*
X32392Y145433D01*
X32969Y146108D01*
X33597Y146736D01*
X34272Y147313D01*
X34991Y147835D01*
X35748Y148299D01*
X36539Y148703D01*
X37360Y149043D01*
X38205Y149317D01*
X39068Y149524D01*
X39945Y149663D01*
X40831Y149733D01*
X41719Y149733D01*
X42605Y149663D01*
X43482Y149524D01*
X44345Y149317D01*
X45190Y149043D01*
X46011Y148703D01*
X46802Y148299D01*
X47559Y147835D01*
X48278Y147313D01*
X48953Y146736D01*
X49581Y146108D01*
X50158Y145433D01*
X50680Y144714D01*
X51144Y143957D01*
X51548Y143166D01*
X51888Y142345D01*
X52162Y141500D01*
X52369Y140637D01*
X52508Y139760D01*
X52578Y138874D01*
X52578Y137986D01*
M02*
