G04 EAGLE Gerber RS-274X export*
G75*
%MOMM*%
%FSLAX34Y34*%
%LPD*%
%INSilkscreen Top*%
%IPPOS*%
%AMOC8*
5,1,8,0,0,1.08239X$1,22.5*%
G01*
%ADD10C,0.076200*%
%ADD11C,0.152400*%
%ADD12C,0.050800*%
%ADD13C,0.101600*%
%ADD14C,0.127000*%


D10*
X66046Y140934D02*
X64479Y142502D01*
X61343Y142502D01*
X59776Y140934D01*
X59776Y134664D01*
X61343Y133096D01*
X64479Y133096D01*
X66046Y134664D01*
X69131Y139367D02*
X72266Y142502D01*
X72266Y133096D01*
X69131Y133096D02*
X75402Y133096D01*
X60669Y15502D02*
X62236Y13934D01*
X60669Y15502D02*
X57533Y15502D01*
X55966Y13934D01*
X55966Y7664D01*
X57533Y6096D01*
X60669Y6096D01*
X62236Y7664D01*
X65321Y6096D02*
X71592Y6096D01*
X65321Y6096D02*
X71592Y12367D01*
X71592Y13934D01*
X70024Y15502D01*
X66888Y15502D01*
X65321Y13934D01*
X148257Y121884D02*
X146689Y123452D01*
X143554Y123452D01*
X141986Y121884D01*
X141986Y115614D01*
X143554Y114046D01*
X146689Y114046D01*
X148257Y115614D01*
X151341Y121884D02*
X152909Y123452D01*
X156044Y123452D01*
X157612Y121884D01*
X157612Y120317D01*
X156044Y118749D01*
X154477Y118749D01*
X156044Y118749D02*
X157612Y117181D01*
X157612Y115614D01*
X156044Y114046D01*
X152909Y114046D01*
X151341Y115614D01*
X84461Y69179D02*
X82894Y70747D01*
X79758Y70747D01*
X78191Y69179D01*
X78191Y62909D01*
X79758Y61341D01*
X82894Y61341D01*
X84461Y62909D01*
X92249Y61341D02*
X92249Y70747D01*
X87546Y66044D01*
X93817Y66044D01*
X157226Y61341D02*
X157226Y70747D01*
X161929Y70747D01*
X163497Y69179D01*
X163497Y66044D01*
X161929Y64476D01*
X157226Y64476D01*
X160361Y64476D02*
X163497Y61341D01*
X166581Y67612D02*
X169717Y70747D01*
X169717Y61341D01*
X172852Y61341D02*
X166581Y61341D01*
D11*
X110105Y67820D02*
X74045Y67820D01*
X74045Y115060D02*
X110105Y115060D01*
D12*
X78613Y109474D02*
X78615Y109593D01*
X78621Y109712D01*
X78631Y109830D01*
X78645Y109948D01*
X78663Y110065D01*
X78684Y110182D01*
X78710Y110298D01*
X78739Y110413D01*
X78773Y110528D01*
X78810Y110640D01*
X78851Y110752D01*
X78895Y110862D01*
X78943Y110971D01*
X78995Y111078D01*
X79051Y111183D01*
X79109Y111286D01*
X79172Y111387D01*
X79237Y111487D01*
X79306Y111583D01*
X79378Y111678D01*
X79453Y111770D01*
X79532Y111859D01*
X79613Y111946D01*
X79697Y112030D01*
X79784Y112111D01*
X79873Y112190D01*
X79965Y112265D01*
X80060Y112337D01*
X80156Y112406D01*
X80256Y112471D01*
X80357Y112534D01*
X80460Y112592D01*
X80565Y112648D01*
X80672Y112700D01*
X80781Y112748D01*
X80891Y112792D01*
X81003Y112833D01*
X81115Y112870D01*
X81230Y112904D01*
X81345Y112933D01*
X81461Y112959D01*
X81578Y112980D01*
X81695Y112998D01*
X81813Y113012D01*
X81931Y113022D01*
X82050Y113028D01*
X82169Y113030D01*
X82288Y113028D01*
X82407Y113022D01*
X82525Y113012D01*
X82643Y112998D01*
X82760Y112980D01*
X82877Y112959D01*
X82993Y112933D01*
X83108Y112904D01*
X83223Y112870D01*
X83335Y112833D01*
X83447Y112792D01*
X83557Y112748D01*
X83666Y112700D01*
X83773Y112648D01*
X83878Y112592D01*
X83981Y112534D01*
X84082Y112471D01*
X84182Y112406D01*
X84278Y112337D01*
X84373Y112265D01*
X84465Y112190D01*
X84554Y112111D01*
X84641Y112030D01*
X84725Y111946D01*
X84806Y111859D01*
X84885Y111770D01*
X84960Y111678D01*
X85032Y111583D01*
X85101Y111487D01*
X85166Y111387D01*
X85229Y111286D01*
X85287Y111183D01*
X85343Y111078D01*
X85395Y110971D01*
X85443Y110862D01*
X85487Y110752D01*
X85528Y110640D01*
X85565Y110528D01*
X85599Y110413D01*
X85628Y110298D01*
X85654Y110182D01*
X85675Y110065D01*
X85693Y109948D01*
X85707Y109830D01*
X85717Y109712D01*
X85723Y109593D01*
X85725Y109474D01*
X85723Y109355D01*
X85717Y109236D01*
X85707Y109118D01*
X85693Y109000D01*
X85675Y108883D01*
X85654Y108766D01*
X85628Y108650D01*
X85599Y108535D01*
X85565Y108420D01*
X85528Y108308D01*
X85487Y108196D01*
X85443Y108086D01*
X85395Y107977D01*
X85343Y107870D01*
X85287Y107765D01*
X85229Y107662D01*
X85166Y107561D01*
X85101Y107461D01*
X85032Y107365D01*
X84960Y107270D01*
X84885Y107178D01*
X84806Y107089D01*
X84725Y107002D01*
X84641Y106918D01*
X84554Y106837D01*
X84465Y106758D01*
X84373Y106683D01*
X84278Y106611D01*
X84182Y106542D01*
X84082Y106477D01*
X83981Y106414D01*
X83878Y106356D01*
X83773Y106300D01*
X83666Y106248D01*
X83557Y106200D01*
X83447Y106156D01*
X83335Y106115D01*
X83223Y106078D01*
X83108Y106044D01*
X82993Y106015D01*
X82877Y105989D01*
X82760Y105968D01*
X82643Y105950D01*
X82525Y105936D01*
X82407Y105926D01*
X82288Y105920D01*
X82169Y105918D01*
X82050Y105920D01*
X81931Y105926D01*
X81813Y105936D01*
X81695Y105950D01*
X81578Y105968D01*
X81461Y105989D01*
X81345Y106015D01*
X81230Y106044D01*
X81115Y106078D01*
X81003Y106115D01*
X80891Y106156D01*
X80781Y106200D01*
X80672Y106248D01*
X80565Y106300D01*
X80460Y106356D01*
X80357Y106414D01*
X80256Y106477D01*
X80156Y106542D01*
X80060Y106611D01*
X79965Y106683D01*
X79873Y106758D01*
X79784Y106837D01*
X79697Y106918D01*
X79613Y107002D01*
X79532Y107089D01*
X79453Y107178D01*
X79378Y107270D01*
X79306Y107365D01*
X79237Y107461D01*
X79172Y107561D01*
X79109Y107662D01*
X79051Y107765D01*
X78995Y107870D01*
X78943Y107977D01*
X78895Y108086D01*
X78851Y108196D01*
X78810Y108308D01*
X78773Y108420D01*
X78739Y108535D01*
X78710Y108650D01*
X78684Y108766D01*
X78663Y108883D01*
X78645Y109000D01*
X78631Y109118D01*
X78621Y109236D01*
X78615Y109355D01*
X78613Y109474D01*
D13*
X62614Y116713D02*
X59563Y116713D01*
X61088Y116713D02*
X61088Y125865D01*
X59563Y125865D02*
X62614Y125865D01*
X70376Y125865D02*
X71901Y124340D01*
X70376Y125865D02*
X67325Y125865D01*
X65800Y124340D01*
X65800Y118238D01*
X67325Y116713D01*
X70376Y116713D01*
X71901Y118238D01*
X75155Y122814D02*
X78206Y125865D01*
X78206Y116713D01*
X81256Y116713D02*
X75155Y116713D01*
D11*
X200025Y57150D02*
X200025Y44450D01*
X193675Y38100D01*
X180975Y38100D01*
X174625Y44450D01*
X200025Y82550D02*
X193675Y88900D01*
X200025Y82550D02*
X200025Y69850D01*
X193675Y63500D01*
X180975Y63500D01*
X174625Y69850D01*
X174625Y82550D01*
X180975Y88900D01*
X193675Y63500D02*
X200025Y57150D01*
X180975Y63500D02*
X174625Y57150D01*
X174625Y44450D01*
X200025Y120650D02*
X200025Y133350D01*
X200025Y120650D02*
X193675Y114300D01*
X180975Y114300D01*
X174625Y120650D01*
X193675Y114300D02*
X200025Y107950D01*
X200025Y95250D01*
X193675Y88900D01*
X180975Y88900D01*
X174625Y95250D01*
X174625Y107950D01*
X180975Y114300D01*
X180975Y139700D02*
X193675Y139700D01*
X200025Y133350D01*
X180975Y139700D02*
X174625Y133350D01*
X174625Y120650D01*
X200025Y31750D02*
X200025Y19050D01*
X193675Y12700D01*
X180975Y12700D01*
X174625Y19050D01*
X193675Y38100D02*
X200025Y31750D01*
X180975Y38100D02*
X174625Y31750D01*
X174625Y19050D01*
D13*
X174120Y139065D02*
X172594Y140590D01*
X174120Y139065D02*
X175645Y139065D01*
X177170Y140590D01*
X177170Y148217D01*
X175645Y148217D02*
X178696Y148217D01*
X181950Y148217D02*
X181950Y139065D01*
X181950Y148217D02*
X186526Y148217D01*
X188051Y146692D01*
X188051Y143641D01*
X186526Y142116D01*
X181950Y142116D01*
X191305Y145166D02*
X194355Y148217D01*
X194355Y139065D01*
X191305Y139065D02*
X197406Y139065D01*
X130048Y45222D02*
X130048Y33528D01*
X130048Y45222D02*
X135895Y45222D01*
X137844Y43273D01*
X137844Y39375D01*
X135895Y37426D01*
X130048Y37426D01*
X133946Y37426D02*
X137844Y33528D01*
X141742Y33528D02*
X149538Y33528D01*
X141742Y33528D02*
X149538Y41324D01*
X149538Y43273D01*
X147589Y45222D01*
X143691Y45222D01*
X141742Y43273D01*
D11*
X45720Y105410D02*
X45720Y110490D01*
X40640Y110490D01*
X20320Y110490D02*
X20320Y105410D01*
X20320Y110490D02*
X25400Y110490D01*
X20320Y90170D02*
X20320Y85090D01*
X25400Y85090D01*
X40640Y85090D02*
X45720Y85090D01*
X45720Y90170D01*
D14*
X24768Y113665D02*
X20955Y113665D01*
X22862Y113665D02*
X22862Y125105D01*
X24768Y125105D02*
X20955Y125105D01*
X28751Y125105D02*
X28751Y113665D01*
X36377Y113665D02*
X28751Y125105D01*
X36377Y125105D02*
X36377Y113665D01*
X40445Y113665D02*
X40445Y125105D01*
X46165Y125105D01*
X48071Y123198D01*
X48071Y119385D01*
X46165Y117478D01*
X40445Y117478D01*
X52139Y115572D02*
X52139Y125105D01*
X52139Y115572D02*
X54046Y113665D01*
X57859Y113665D01*
X59765Y115572D01*
X59765Y125105D01*
X67646Y125105D02*
X67646Y113665D01*
X63833Y125105D02*
X71459Y125105D01*
M02*
